{"title":"The Bletchley Circle S01","uid":13707188,"size":1553022378,"categoryP":"video","categoryS":"tv_shows","magnet":"?xt=urn:btih:f28b35b7fbee987884b64c24cdc4ef9ee97fa487&amp;dn=The+Bletchley+Circle+S01&amp;tr=udp%3A%2F%2Ftracker.leechers-paradise.org%3A6969&amp;tr=udp%3A%2F%2Fzer0day.ch%3A1337&amp;tr=udp%3A%2F%2Fopen.demonii.com%3A1337&amp;tr=udp%3A%2F%2Ftracker.coppersurfer.tk%3A6969&amp;tr=udp%3A%2F%2Fexodus.desync.com%3A6969","seeders":1,"leechers":0,"uploader":"RedBaron58","files":3,"time":1456838148,"description":"The Bletchley Circle S01 x264 mp4\r\n  \nhttp://www.imdb.com/title/tt2275990/\r\n\r\nTrailer:\r\n\r\n\r\n\r\nThank you for your kind comments and feedback on my other torrents, your feedback is welcome.\r\n\r\n\r\nAbout the Series:\r\nSusan Gray, Millie, Lucy, and Jean work together at a secret facility at Bletchley to decipher \r\nGerman military codes for the British military, during World War II. After a brief introduction \r\nof the four women at Bletchley during the war, the series begins in 1952, seven years after \r\nthe war's end, when Susan, Millie, Lucy, and Jean have returned to their ordinary lives. \r\nAs the story begins, Susan learns about a series of murders that has occurred in the \r\nLondon area and begins to recognize patterns connecting the killings. \r\nThis inspires her to return to her codebreaking past, and she reaches out first to Millie, \r\nand then to Lucy and Jean, after unsuccessfully trying to convince the police to follow up \r\nher theory about the crimes.\r\n\r\n\r\nI hope you enjoy.\r\n\r\n\r\nTechnical: (All episodes are encoded to the same settings)\r\n\r\nGeneral\r\nComplete name                            : G:The Bletchley Circle S01The Bletchley Circle S01E01 x264 RB58.mp4\r\nFormat                                   : MPEG-4\r\nFormat profile                           : Base Media\r\nCodec ID                                 : isom\r\nFile size                                : 492 MiB\r\nDuration                                 : 45mn 16s\r\nOverall bit rate                         : 1 520 Kbps\r\nWriting application                      : Lavf54.63.104\r\n\r\nVideo\r\nID                                       : 1\r\nFormat                                   : AVC\r\nFormat/Info                              : Advanced Video Codec\r\nFormat profile                           :   \r\nFormat settings, CABAC                   : Yes\r\nFormat settings, ReFrames                : 4 frames\r\nCodec ID                                 : avc1\r\nCodec ID/Info                            : Advanced Video Coding\r\nDuration                                 : 45mn 16s\r\nBit rate                                 : 1 400 Kbps\r\nWidth                                    : 832 pixels\r\nHeight                                   : 468 pixels\r\nDisplay aspect ratio                     : 16:9\r\nFrame rate mode                          : Constant\r\nFrame rate                               : 25.000 fps\r\nColor space                              : YUV\r\nChroma subsampling                       : 4:2:0\r\nBit depth                                : 8 bits\r\nScan type                                : Progressive\r\nBits/(Pixel*Frame)                       : 0.144\r\nStream size                              : 453 MiB (92%)\r\nWriting library                          : x264 core 123 r2189 35cf912\r\nEncoding settings                        : cabac=1 / ref=3 / deblock=1:0:0\r\n\r\nAudio\r\nID                                       : 2\r\nFormat                                   : AAC\r\nFormat/Info                              : Advanced Audio Codec\r\nFormat profile                           : LC\r\nCodec ID                                 : 40\r\nDuration                                 : 45mn 16s\r\nBit rate mode                            : Constant\r\nBit rate                                 : 112 Kbps\r\nChannel(s)                               : 2 channels\r\nChannel positions                        : Front: L R\r\nSampling rate                            : 48.0 KHz\r\nCompression mode                         : Lossy\r\nStream size                              : 36.3 MiB (7%)","torrent":{"xt":"urn:btih:f28b35b7fbee987884b64c24cdc4ef9ee97fa487","amp;dn":"The+Bletchley+Circle+S01","amp;tr":["udp%3A%2F%2Ftracker.leechers-paradise.org%3A6969","udp%3A%2F%2Fzer0day.ch%3A1337","udp%3A%2F%2Fopen.demonii.com%3A1337","udp%3A%2F%2Ftracker.coppersurfer.tk%3A6969","udp%3A%2F%2Fexodus.desync.com%3A6969"],"infoHash":"f28b35b7fbee987884b64c24cdc4ef9ee97fa487","infoHashBuffer":{"type":"Buffer","data":[242,139,53,183,251,238,152,120,132,182,76,36,205,196,239,158,233,127,164,135]},"announce":[],"urlList":[]}}